HIERARCHY
ROOT joint_Root
{
  OFFSET 0 0 0
  CHANNELS 6 Xposition Yposition Zposition Zrotation Xrotation Yrotation
  JOINT Hips
  {
    OFFSET 0.847027 93.984 -452.225
    CHANNELS 6 Xposition Yposition Zposition Zrotation Xrotation Yrotation
    JOINT Spine
    {
      OFFSET 15.7357 0 0
      CHANNELS 6 Xposition Yposition Zposition Zrotation Xrotation Yrotation
      JOINT Chest
      {
        OFFSET 8.98455 -0.406207 0
        CHANNELS 6 Xposition Yposition Zposition Zrotation Xrotation Yrotation
        JOINT Neck
        {
          OFFSET 16.3773 0 0
          CHANNELS 6 Xposition Yposition Zposition Zrotation Xrotation Yrotation
          JOINT Head
          {
            OFFSET 6.45672 0 0
            CHANNELS 6 Xposition Yposition Zposition Zrotation Xrotation Yrotation
            End Site
            {
              OFFSET 0 0 0
            }
          }
        }
        JOINT Shoulder_L
        {
          OFFSET 12.9942 -0.242716 4.98039
          CHANNELS 6 Xposition Yposition Zposition Zrotation Xrotation Yrotation
          JOINT UpperArm_L
          {
            OFFSET 5.34809 0 0
            CHANNELS 6 Xposition Yposition Zposition Zrotation Xrotation Yrotation
            JOINT LowerArm_L
            {
              OFFSET 24.3286 1.87007e-05 0
              CHANNELS 6 Xposition Yposition Zposition Zrotation Xrotation Yrotation
              JOINT Hand_L
              {
                OFFSET 22.2916 0 0
                CHANNELS 6 Xposition Yposition Zposition Zrotation Xrotation Yrotation
                End Site
                {
                  OFFSET 0 0 0
                }
              }
            }
          }
        }
        JOINT Shoulder_R
        {
          OFFSET 12.9945 -0.242716 -4.98039
          CHANNELS 6 Xposition Yposition Zposition Zrotation Xrotation Yrotation
          JOINT UpperArm_R
          {
            OFFSET -5.34813 0 0
            CHANNELS 6 Xposition Yposition Zposition Zrotation Xrotation Yrotation
            JOINT LowerArm_R
            {
              OFFSET -24.3289 0.000322201 0
              CHANNELS 6 Xposition Yposition Zposition Zrotation Xrotation Yrotation
              JOINT Hand_R
              {
                OFFSET -22.2915 -0.000108084 0
                CHANNELS 6 Xposition Yposition Zposition Zrotation Xrotation Yrotation
                End Site
                {
                  OFFSET 0 0 0
                }
              }
            }
          }
        }
      }
    }
    JOINT UpperLeg_L
    {
      OFFSET -2.19248 -6.46944 0
      CHANNELS 6 Xposition Yposition Zposition Zrotation Xrotation Yrotation
      JOINT LowerLeg_L
      {
        OFFSET 39.0811 0 -1.23785e-05
        CHANNELS 6 Xposition Yposition Zposition Zrotation Xrotation Yrotation
        JOINT Foot_L
        {
          OFFSET 40.9854 0 -1.26872e-05
          CHANNELS 6 Xposition Yposition Zposition Zrotation Xrotation Yrotation
          JOINT Toes_L
          {
            OFFSET 11.7543 0 0
            CHANNELS 6 Xposition Yposition Zposition Zrotation Xrotation Yrotation
            End Site
            {
              OFFSET 0 0 0
            }
          }
        }
      }
    }
    JOINT UpperLeg_R
    {
      OFFSET -2.19251 6.46944 0
      CHANNELS 6 Xposition Yposition Zposition Zrotation Xrotation Yrotation
      JOINT LowerLeg_R
      {
        OFFSET -39.0811 -0.00228153 -0.0401928
        CHANNELS 6 Xposition Yposition Zposition Zrotation Xrotation Yrotation
        JOINT Foot_R
        {
          OFFSET -40.9854 0 0
          CHANNELS 6 Xposition Yposition Zposition Zrotation Xrotation Yrotation
          JOINT Toes_R
          {
            OFFSET -11.7543 0 0
            CHANNELS 6 Xposition Yposition Zposition Zrotation Xrotation Yrotation
            End Site
            {
              OFFSET 0 0 0
            }
          }
        }
      }
    }
  }
}
MOTION
Frames:	5
Frame Time:	0.0333333
0 0 0 0 0 -0 -1.94466 92.0766 -4.66986 91.0225 -2.6993 5.6918 15.7357 5.1072e-06 -5.51765e-07 81.0318 85.9007 -82.1712 8.98455 -0.406207 -4.3199e-07 0.321608 -1.20368 -2.27382 16.3773 -1.3905e-06 -6.99897e-07 -0.291455 0.103008 -0.913202 6.45672 -1.25837e-06 -1.02172e-07 -7.39343 2.28301 -13.1552 12.9942 -0.242716 4.98039 -92.0694 8.13773 -90.6807 5.34809 -7.22636e-06 -6.2814e-07 -69.4655 22.5971 0.615671 24.3286 1.87007e-05 4.90208e-06 -0.399098 -1.73293 -12.9729 22.2916 -9.88446e-07 4.63217e-06 13.9574 5.54135 -8.30435 12.9945 -0.242716 -4.98039 88.1465 12.2931 -96.3578 -5.34813 -1.25947e-06 -3.79883e-06 -64.2707 10.011 3.81184 -24.3289 0.000322201 -8.65921e-06 4.55102 11.0389 -22.5781 -22.2915 -0.000108084 -4.47941e-06 7.39691 5.32324 -0.58829 -2.19248 -6.46944 -1.22534e-07 -175.965 -6.36594 -1.05948 39.0811 -6.73843e-06 -1.23785e-05 -0.0446257 0.161412 21.4515 40.9854 -6.48686e-06 -1.26872e-05 -3.89983 -1.06375 -64.5692 11.7543 -2.30145e-07 3.05095e-06 0.0233125 -0.0363479 -17.2262 -2.19251 6.46944 -1.45247e-06 172.627 8.54523 178.118 -39.0811 -0.00228153 -0.0401928 -0.05029 0.178977 22.6062 -40.9854 7.72618e-06 5.99936e-06 -4.06485 2.47041 -64.584 -11.7543 -5.6619e-06 -5.58687e-06 0.0625076 -0.0703413 -17.2659 
0 0 0 0 0 -0 -1.89362 92.0644 -4.60589 91.0059 -2.73749 5.70488 15.7357 5.1072e-06 -5.51765e-07 81.4674 85.8306 -82.6972 8.98455 -0.406207 -4.3199e-07 0.469457 -1.15859 -2.45296 16.3773 -1.3905e-06 -6.99897e-07 -0.529376 0.0458486 -0.771835 6.45672 -1.25837e-06 -1.02172e-07 -8.22673 2.33844 -12.9438 12.9942 -0.242716 4.98039 -92.0717 8.16541 -90.7111 5.34809 -7.22636e-06 -6.2814e-07 -70.1348 22.556 1.3549 24.3286 1.87007e-05 4.90208e-06 -0.296974 -1.34987 -12.4117 22.2916 -9.88446e-07 4.63217e-06 13.5335 5.5375 -8.12869 12.9945 -0.242716 -4.98039 88.1507 12.3211 -96.3958 -5.34813 -1.25947e-06 -3.79883e-06 -65.14 10.1968 4.33769 -24.3289 0.000322201 -8.65921e-06 4.52602 11.234 -22.118 -22.2915 -0.000108084 -4.47941e-06 7.21254 5.32261 -0.570924 -2.19248 -6.46944 -1.22534e-07 -175.977 -6.37792 -1.04339 39.0811 -6.73843e-06 -1.23785e-05 -0.0447199 0.161052 21.5475 40.9854 -6.48686e-06 -1.26872e-05 -3.87314 -1.07353 -64.6708 11.7543 -2.30145e-07 3.05095e-06 0.0220223 -0.0343238 -17.1902 -2.19251 6.46944 -1.45247e-06 172.559 8.74701 178.171 -39.0811 -0.00228153 -0.0401928 -0.0500091 0.178719 22.6191 -40.9854 7.72618e-06 5.99936e-06 -4.05888 2.72966 -64.6094 -11.7543 -5.6619e-06 -5.58687e-06 0.070253 -0.079191 -17.3524 
0 0 0 0 0 -0 -1.8473 92.0518 -4.53389 90.9864 -2.83206 5.78552 15.7357 5.1072e-06 -5.51765e-07 81.9433 85.7466 -83.2674 8.98455 -0.406207 -4.3199e-07 0.645581 -1.10962 -2.64 16.3773 -1.3905e-06 -6.99897e-07 -0.744682 -0.0293746 -0.576263 6.45672 -1.25837e-06 -1.02172e-07 -8.99878 2.38687 -12.5872 12.9942 -0.242716 4.98039 -92.0764 8.16863 -90.6859 5.34809 -7.22636e-06 -6.2814e-07 -70.6177 22.4623 1.91053 24.3286 1.87007e-05 4.90208e-06 -0.220259 -1.03918 -11.9676 22.2916 -9.88446e-07 4.63217e-06 13.1027 5.53403 -7.9733 12.9945 -0.242716 -4.98039 88.1764 12.3532 -96.5352 -5.34813 -1.25947e-06 -3.79883e-06 -66.0986 10.4994 4.92606 -24.3289 0.000322201 -8.65921e-06 4.54345 11.5141 -21.7122 -22.2915 -0.000108084 -4.47941e-06 6.97459 5.32135 -0.534471 -2.19248 -6.46944 -1.22534e-07 -175.98 -6.42285 -0.939597 39.0811 -6.73843e-06 -1.23785e-05 -0.04417 0.159166 21.6387 40.9854 -6.48686e-06 -1.26872e-05 -3.85673 -1.13962 -64.785 11.7543 -2.30145e-07 3.05095e-06 0.0221996 -0.0346064 -17.1952 -2.19251 6.46944 -1.45247e-06 172.486 8.91324 178.293 -39.0811 -0.00228153 -0.0401928 -0.0512843 0.181327 22.6275 -40.9854 7.72618e-06 5.99936e-06 -4.0459 3.01408 -64.6363 -11.7543 -5.6619e-06 -5.58687e-06 0.0660486 -0.0743741 -17.3054 
0 0 0 0 0 -0 -1.7956 92.0393 -4.44474 90.9399 -2.951 5.86715 15.7357 5.1072e-06 -5.51765e-07 82.4632 85.6593 -83.8788 8.98455 -0.406207 -4.3199e-07 0.829206 -1.0526 -2.8215 16.3773 -1.3905e-06 -6.99897e-07 -0.950419 -0.0939691 -0.347108 6.45672 -1.25837e-06 -1.02172e-07 -9.74732 2.34717 -12.1303 12.9942 -0.242716 4.98039 -92.0725 8.15878 -90.6954 5.34809 -7.22636e-06 -6.2814e-07 -70.8665 22.3954 2.32635 24.3286 1.87007e-05 4.90208e-06 -0.142408 -0.684135 -11.7633 22.2916 -9.88446e-07 4.63217e-06 12.8216 5.53241 -7.90079 12.9945 -0.242716 -4.98039 88.1819 12.4219 -96.606 -5.34813 -1.25947e-06 -3.79883e-06 -67.0774 10.9801 5.45477 -24.3289 0.000322201 -8.65921e-06 4.61222 11.8935 -21.3818 -22.2915 -0.000108084 -4.47941e-06 6.83647 5.32007 -0.49757 -2.19248 -6.46944 -1.22534e-07 -175.945 -6.51463 -0.824221 39.0811 -6.73843e-06 -1.23785e-05 -0.0446656 0.160626 21.7396 40.9854 -6.48686e-06 -1.26872e-05 -3.83125 -1.14791 -64.9143 11.7543 -2.30145e-07 3.05095e-06 0.0220716 -0.034391 -17.1915 -2.19251 6.46944 -1.45247e-06 172.429 9.04845 178.445 -39.0811 -0.00228153 -0.0401928 -0.0519889 0.183306 22.5952 -40.9854 7.72618e-06 5.99936e-06 -4.04217 3.31594 -64.652 -11.7543 -5.6619e-06 -5.58687e-06 0.0738924 -0.0833578 -17.3931 
0 0 0 0 0 -0 -1.7222 92.029 -4.37465 90.9129 -3.17032 5.9362 15.7357 5.1072e-06 -5.51765e-07 83.2383 85.5766 -84.7353 8.98455 -0.406207 -4.3199e-07 1.00881 -0.953003 -2.98316 16.3773 -1.3905e-06 -6.99897e-07 -1.10088 -0.189924 -0.145129 6.45672 -1.25837e-06 -1.02172e-07 -10.5782 2.30701 -11.6985 12.9942 -0.242716 4.98039 -92.073 8.15695 -90.6888 5.34809 -7.22636e-06 -6.2814e-07 -70.9038 22.4366 2.53084 24.3286 1.87007e-05 4.90208e-06 -0.152345 -0.732064 -11.762 22.2916 -9.88446e-07 4.63217e-06 12.7346 5.53077 -7.82878 12.9945 -0.242716 -4.98039 88.1777 12.4862 -96.6287 -5.34813 -1.25947e-06 -3.79883e-06 -67.9776 11.4997 5.8787 -24.3289 0.000322201 -8.65921e-06 4.73462 12.3764 -21.132 -22.2915 -0.000108084 -4.47941e-06 6.52938 5.31853 -0.453501 -2.19248 -6.46944 -1.22534e-07 -175.963 -6.60049 -0.715678 39.0811 -6.73843e-06 -1.23785e-05 -0.0435862 0.157253 21.826 40.9854 -6.48686e-06 -1.26872e-05 -3.81194 -1.30147 -65.0407 11.7543 -2.30145e-07 3.05095e-06 0.0218026 -0.0339951 -17.1843 -2.19251 6.46944 -1.45247e-06 172.354 9.13389 178.539 -39.0811 -0.00228153 -0.0401928 -0.0525176 0.184988 22.5746 -40.9854 7.72618e-06 5.99936e-06 -4.04636 3.61971 -64.6409 -11.7543 -5.6619e-06 -5.58687e-06 0.0718602 -0.0810039 -17.3702 
